solid cube
facet normal 0 0 0
outer loop
vertex 100 100 0
vertex 120 120 0
vertex 120 100 0
endloop
endfacet
facet normal 0 0 0
outer loop
vertex 100 100 0
vertex 100 120 0
vertex 120 120 0
endloop
endfacet
facet normal 0 0 0
outer loop
vertex 100 100 10
vertex 120 100 10
vertex 120 120 10
endloop
endfacet
facet normal 0 0 0
outer loop
vertex 100 100 10
vertex 120 120 10
vertex 100 120 10
endloop
endfacet
facet normal 0 0 0
outer loop
vertex 100 100 0
vertex 120 100 0
vertex 120 100 10
endloop
endfacet
facet normal 0 0 0
outer loop
vertex 100 100 0
vertex 120 100 10
vertex 100 100 10
endloop
endfacet
facet normal 0 0 0
outer loop
vertex 120 100 0
vertex 120 120 0
vertex 120 120 10
endloop
endfacet
facet normal 0 0 0
outer loop
vertex 120 100 0
vertex 120 120 10
vertex 120 100 10
endloop
endfacet
facet normal 0 0 0
outer loop
vertex 120 120 0
vertex 100 120 0
vertex 100 120 10
endloop
endfacet
facet normal 0 0 0
outer loop
vertex 120 120 0
vertex 100 120 10
vertex 120 120 10
endloop
endfacet
facet normal 0 0 0
outer loop
vertex 100 120 0
vertex 100 100 0
vertex 100 100 10
endloop
endfacet
facet normal 0 0 0
outer loop
vertex 100 120 0
vertex 100 100 10
vertex 100 120 10
endloop
endfacet
endsolid cube